
        <svg xmlns="http://www.w3.org/2000/svg" xmlns:xlink="http://www.w3.org/1999/xlink" version="1.1" width="3154.4401544401544" height="1013.8996138996139" viewBox="0 0 3154.4401544401544 1013.8996138996139">
			
			<g transform="scale(7.722007722007722) translate(10, 10)">
				<defs id="SvgjsDefs1169"><linearGradient id="SvgjsLinearGradient1178"><stop id="SvgjsStop1179" stop-color="#8f5e25" offset="0"/><stop id="SvgjsStop1180" stop-color="#fbf4a1" offset="0.5"/><stop id="SvgjsStop1181" stop-color="#8f5e25" offset="1"/></linearGradient><linearGradient id="SvgjsLinearGradient1182"><stop id="SvgjsStop1183" stop-color="#8f5e25" offset="0"/><stop id="SvgjsStop1184" stop-color="#fbf4a1" offset="0.5"/><stop id="SvgjsStop1185" stop-color="#8f5e25" offset="1"/></linearGradient><linearGradient id="SvgjsLinearGradient1186"><stop id="SvgjsStop1187" stop-color="#8f5e25" offset="0"/><stop id="SvgjsStop1188" stop-color="#fbf4a1" offset="0.5"/><stop id="SvgjsStop1189" stop-color="#8f5e25" offset="1"/></linearGradient><linearGradient id="SvgjsLinearGradient1190"><stop id="SvgjsStop1191" stop-color="#8f5e25" offset="0"/><stop id="SvgjsStop1192" stop-color="#fbf4a1" offset="0.5"/><stop id="SvgjsStop1193" stop-color="#8f5e25" offset="1"/></linearGradient></defs><g id="SvgjsG1170" featureKey="rootContainer" transform="matrix(1.05,0,0,1.05,0,0)" fill="#fff"><rect y="0" height="1" width="1" opacity="0"/><rect y="101" width="370" height="5"/></g><g id="SvgjsG1171" featureKey="2ou6gm-0" transform="matrix(1.014439633027475,0,0,1.014439633027475,-205.46876982763553,-203.96188216804777)" fill="#fff"><g xmlns="http://www.w3.org/2000/svg"><path d="M260.167,261.185c0.15,0.149,0.346,0.225,0.541,0.225c0.196,0,0.392-0.075,0.54-0.225l7.425-7.423   c0.298-0.299,0.298-0.782,0-1.081c-0.299-0.298-0.783-0.298-1.08,0l-7.426,7.424C259.87,260.404,259.87,260.888,260.167,261.185z"/><path d="M259.896,255.76c0.149,0.149,0.345,0.224,0.541,0.224c0.194,0,0.39-0.074,0.538-0.224l4.849-4.848   c0.299-0.299,0.299-0.782,0-1.081c-0.297-0.298-0.781-0.298-1.079,0l-4.849,4.849C259.598,254.979,259.598,255.462,259.896,255.76z   "/><path d="M259.734,250.989c0.195,0,0.391-0.074,0.54-0.224l2.701-2.701c0.299-0.298,0.299-0.782,0-1.08   c-0.299-0.298-0.781-0.298-1.08,0l-2.701,2.702c-0.299,0.298-0.299,0.782,0,1.08C259.342,250.915,259.537,250.989,259.734,250.989z   "/><path d="M270.589,262.16c0.148,0.15,0.344,0.225,0.538,0.225c0.196,0,0.392-0.074,0.541-0.225l2.702-2.701   c0.299-0.299,0.299-0.781,0-1.08c-0.299-0.298-0.783-0.298-1.081,0l-2.7,2.702C270.29,261.378,270.29,261.862,270.589,262.16z"/><path d="M265.593,261.459c0.148,0.148,0.345,0.224,0.54,0.224s0.392-0.075,0.54-0.224l4.849-4.849c0.299-0.298,0.299-0.781,0-1.08   c-0.299-0.298-0.783-0.298-1.08,0l-4.849,4.849C265.295,260.676,265.295,261.16,265.593,261.459z"/><path d="M299.645,238.486c1.244-1.245,1.244-3.27,0-4.516l-12.262-12.261c-0.603-0.603-1.405-0.935-2.258-0.935   c-0.055,0-0.109,0.005-0.164,0.008c-0.025,0-0.052,0.001-0.076,0.003c-0.763,0.057-1.472,0.378-2.018,0.923l-14.126,14.126h-21.719   V231.2c0-2.074-1.688-3.761-3.761-3.761h-28.084c-0.919,0-1.806,0.338-2.498,0.953c-0.802,0.716-1.263,1.74-1.263,2.808v15.2   c0,2.073,1.687,3.76,3.76,3.76h2.538v33.49h-1.618c-1.632,0-2.96,1.328-2.96,2.961v1.655c0,1.633,1.328,2.961,2.96,2.961h72.035   c1.633,0,2.961-1.328,2.961-2.961v-1.655c0-1.633-1.328-2.961-2.961-2.961h-1.617v-32.036L299.645,238.486z M283.948,222.79   c0.011-0.011,0.022-0.021,0.035-0.032l-2.633,15.918l-15.917,2.633c0.009-0.012,0.019-0.023,0.029-0.034L283.948,222.79z    M247.023,237.363h20.191l-2.831,2.831c-0.188,0.189-0.347,0.398-0.48,0.622h-16.88V237.363L247.023,237.363z M247.023,246.4   v-4.057h16.432c-0.002,0.036-0.006,0.072-0.006,0.108c0,0.853,0.333,1.655,0.935,2.258l12.261,12.261   c0.604,0.603,1.405,0.935,2.258,0.935c0.326,0,0.646-0.05,0.948-0.144v20.915h-55.471V250.16h6.085l7.36,6.766   c0.014,0.012,0.029,0.021,0.044,0.034c0.019,0.015,0.038,0.031,0.059,0.045c0.022,0.014,0.046,0.025,0.069,0.037   c0.02,0.011,0.038,0.021,0.059,0.029c0.028,0.012,0.057,0.019,0.085,0.026c0.019,0.006,0.036,0.011,0.053,0.015   c0.047,0.01,0.095,0.014,0.143,0.016c0.001,0,0.002,0,0.003,0c0,0,0,0,0,0c0.106,0,0.208-0.022,0.299-0.062   c0.013-0.006,0.025-0.014,0.038-0.021c0.034-0.017,0.066-0.033,0.096-0.054c0.015-0.011,0.027-0.022,0.042-0.035   c0.027-0.021,0.053-0.042,0.077-0.066c0.003-0.005,0.007-0.006,0.012-0.01c0.011-0.014,0.02-0.029,0.03-0.041   c0.017-0.021,0.035-0.044,0.05-0.067c0.013-0.021,0.024-0.042,0.035-0.063c0.011-0.022,0.023-0.045,0.032-0.068   c0.01-0.023,0.017-0.049,0.023-0.073c0.006-0.023,0.013-0.046,0.017-0.069c0.005-0.028,0.007-0.055,0.009-0.084   c0-0.016,0.005-0.033,0.005-0.05l0.005-6.205h4.152C245.335,250.159,247.023,248.472,247.023,246.4z M223.615,280.204h56.999   c0.422,0,0.765-0.343,0.765-0.764v-22.689l3.608-3.608v30.508h-23.415c-0.052,0-0.103,0.005-0.151,0.015   c-0.021,0.004-0.041,0.012-0.061,0.018c-0.027,0.008-0.056,0.015-0.083,0.026c-0.024,0.011-0.048,0.024-0.07,0.036   c-0.021,0.013-0.041,0.021-0.061,0.033c-0.001,0.001-0.003,0.003-0.004,0.003c-0.042,0.028-0.081,0.06-0.114,0.095l-2.799,2.798   h-12.23l-2.8-2.8c-0.03-0.03-0.063-0.055-0.095-0.078c-0.007-0.004-0.012-0.011-0.019-0.015c-0.03-0.021-0.063-0.037-0.095-0.052   c-0.013-0.007-0.024-0.016-0.037-0.021c-0.035-0.014-0.07-0.023-0.105-0.033c-0.013-0.003-0.025-0.008-0.038-0.011   c-0.05-0.01-0.101-0.015-0.152-0.015h-23.416v-33.49h3.609v29.28C222.851,279.861,223.192,280.204,223.615,280.204z    M215.177,248.633c-1.231,0-2.232-1.002-2.232-2.233v-15.2c0-0.633,0.274-1.241,0.751-1.667c0.411-0.366,0.937-0.566,1.481-0.566   h28.084c1.232,0,2.233,1.001,2.233,2.232v15.2c0,1.23-1.001,2.232-2.233,2.232l-4.915,0c-0.422,0-0.763,0.341-0.764,0.763   l-0.004,5.229l-6.3-5.792c-0.017-0.016-0.037-0.027-0.055-0.041c-0.016-0.012-0.032-0.025-0.048-0.036   c-0.027-0.017-0.054-0.031-0.082-0.044c-0.017-0.008-0.033-0.017-0.05-0.024c-0.031-0.011-0.061-0.021-0.093-0.028   c-0.017-0.004-0.033-0.01-0.05-0.013c-0.035-0.007-0.07-0.009-0.105-0.01c-0.012,0-0.023-0.004-0.035-0.004h-0.031h-0.001H215.177   L215.177,248.633z M288.131,285.177c0.789,0,1.434,0.644,1.434,1.434v1.655c0,0.791-0.645,1.434-1.434,1.434h-72.035   c-0.79,0-1.432-0.643-1.432-1.434v-1.655c0-0.79,0.643-1.434,1.432-1.434h2.375c0.002,0,0.005,0,0.007,0h23.865l2.799,2.801   c0.035,0.035,0.074,0.066,0.116,0.096c0.02,0.012,0.041,0.021,0.06,0.031c0.024,0.014,0.046,0.027,0.072,0.038   c0.025,0.011,0.052,0.017,0.078,0.024c0.022,0.007,0.042,0.016,0.064,0.02c0.05,0.009,0.1,0.015,0.15,0.015h12.863   c0.05,0,0.099-0.006,0.149-0.015c0.022-0.004,0.043-0.013,0.064-0.02c0.025-0.008,0.053-0.014,0.077-0.024   c0.025-0.011,0.048-0.024,0.071-0.037c0.021-0.011,0.041-0.021,0.062-0.032c0.038-0.027,0.075-0.057,0.107-0.089   c0.003-0.003,0.006-0.004,0.009-0.007l2.799-2.801h23.865c0.003,0,0.004,0,0.007,0H288.131L288.131,285.177z M285.21,250.758   C285.21,250.759,285.21,250.759,285.21,250.758l-5.131,5.13c-0.313,0.315-0.732,0.488-1.178,0.488   c-0.444,0-0.862-0.172-1.177-0.488l-12.262-12.261c-0.2-0.2-0.342-0.442-0.42-0.707l17.096-2.828c0.002,0,0.003-0.001,0.004-0.001   c0.048-0.008,0.096-0.021,0.141-0.038c0.013-0.005,0.023-0.012,0.036-0.016c0.031-0.014,0.062-0.028,0.09-0.046   c0.017-0.01,0.031-0.022,0.048-0.033c0.021-0.017,0.045-0.033,0.065-0.052c0.015-0.013,0.027-0.027,0.041-0.041   c0.019-0.021,0.038-0.041,0.055-0.063c0.012-0.015,0.022-0.03,0.032-0.046c0.015-0.023,0.03-0.047,0.042-0.072   c0.01-0.018,0.019-0.035,0.026-0.054c0.01-0.024,0.018-0.049,0.025-0.075c0.006-0.021,0.013-0.043,0.017-0.064   c0.002-0.009,0.006-0.017,0.007-0.027l2.828-17.095c0.265,0.077,0.506,0.22,0.707,0.42l12.261,12.261   c0.649,0.649,0.649,1.705,0,2.354L285.21,250.758z"/><path d="M239.646,262.51c-1.935,0-3.51,1.574-3.51,3.509c0,1.936,1.575,3.511,3.51,3.511c1.039,0,1.971-0.457,2.614-1.176   l5.015,2.798c-0.095,0.318-0.147,0.654-0.147,1.002c0,1.936,1.574,3.51,3.509,3.51c1.936,0,3.51-1.574,3.51-3.51   s-1.574-3.511-3.51-3.511c-1.039,0-1.971,0.457-2.614,1.177l-5.014-2.799c0.095-0.317,0.148-0.653,0.148-1.002   c0-0.347-0.052-0.683-0.147-1l5.015-2.8c0.643,0.721,1.574,1.177,2.613,1.177c1.935,0,3.51-1.575,3.51-3.509   c0-1.937-1.575-3.51-3.51-3.51s-3.509,1.574-3.509,3.51c0,0.348,0.053,0.683,0.147,1.001l-5.014,2.798   C241.617,262.966,240.685,262.51,239.646,262.51z M239.646,268.003c-1.093,0-1.982-0.89-1.982-1.983   c0-1.093,0.889-1.982,1.982-1.982s1.982,0.89,1.982,1.982C241.628,267.113,240.739,268.003,239.646,268.003z M248.901,271.197   c0.002-0.002,0.004-0.005,0.006-0.008c0.001-0.001,0.001-0.001,0.001-0.003c0.339-0.604,0.987-1.015,1.728-1.015   c1.094,0,1.982,0.89,1.982,1.982s-0.889,1.981-1.982,1.981c-1.093,0-1.981-0.889-1.981-1.981   C248.655,271.807,248.744,271.481,248.901,271.197z M250.636,257.905c1.093,0,1.982,0.888,1.982,1.982   c0,1.093-0.89,1.98-1.982,1.98s-1.981-0.888-1.981-1.98C248.655,258.793,249.543,257.905,250.636,257.905z"/></g></g><g id="SvgjsG1172" featureKey="kZnDdN-0" transform="matrix(1.7184225841761525,0,0,1.7184225841761525,117.41905119387867,19.407887079119238)" fill="#fff"><path d="M0.92 6.119999999999999 l0 12 c0 0.36 0.18 0.54 0.54 0.54 c0.37334 0 0.56 -0.18 0.56 -0.54 l0 0 l0 -12 c0 -0.37334 -0.18666 -0.56 -0.56 -0.56 c-0.36 0 -0.54 0.18666 -0.54 0.56 z M28.35 5.5600000000000005 c-0.37334 0 -0.56 0.18666 -0.56 0.56 l0 10.88 l-16 -12 l0 13.12 c0 0.36 0.18666 0.54 0.56 0.54 s0.56 -0.18 0.56 -0.54 l0 -10.9 l16 12 l0 -13.1 c0 -0.37334 -0.18666 -0.56 -0.56 -0.56 z M38.660000000000004 14 c0 1.3733 0.82666 2.53 2.48 3.47 s3.68 1.41 6.08 1.41 c2.3866 0 4.3334 -0.26 5.84 -0.78 c1.8133 -0.62666 2.72 -1.5467 2.72 -2.76 c0 -1.2667 -0.77334 -2.18 -2.32 -2.74 c-0.88 -0.32 -2.5934 -0.65334 -5.14 -1 l-1.98 -0.28 c-2.4134 -0.34666 -4.0134 -0.65332 -4.8 -0.91998 c-1.1733 -0.4 -1.76 -0.98 -1.76 -1.74 c0 -0.72 0.69334 -1.3067 2.08 -1.76 s3.1734 -0.68 5.36 -0.68 c2.0134 0 3.7566 0.37334 5.23 1.12 s2.21 1.6333 2.21 2.66 l0 0 c0 0.37334 0.18666 0.56 0.56 0.56 s0.56 -0.18666 0.56 -0.56 l0 0 c0 -1.3733 -0.82666 -2.53 -2.48 -3.47 s-3.68 -1.41 -6.08 -1.41 c-2.3866 0 -4.3334 0.26 -5.84 0.78 c-1.8133 0.62666 -2.72 1.5467 -2.72 2.76 c0 1.2667 0.80666 2.1866 2.42 2.76 c0.77334 0.26666 2.48 0.6 5.12 1 l0.94 0.14 l1.02 0.14 c2.44 0.33334 4.06 0.64 4.86 0.92 c1.0933 0.37334 1.64 0.94668 1.64 1.72 c0 0.72 -0.69334 1.3067 -2.08 1.76 s-3.1734 0.68 -5.36 0.68 c-2.0134 0 -3.7566 -0.37334 -5.23 -1.12 s-2.21 -1.6333 -2.21 -2.66 l0 0 c0 -0.37334 -0.18666 -0.56 -0.56 -0.56 s-0.56 0.18666 -0.56 0.56 z M78.15 5.4399999999999995 l-12.56 0 l0 12.56 c0 0.37334 0.18666 0.56 0.56 0.56 s0.56 -0.18666 0.56 -0.56 l0 -3.44 l11.44 0 c1.2667 0 2.3434 -0.44666 3.23 -1.34 s1.33 -1.9667 1.33 -3.22 c0 -1.2667 -0.44334 -2.3434 -1.33 -3.23 s-1.9633 -1.33 -3.23 -1.33 z M78.15 13.440000000000001 l-11.44 0 l0 -6.88 l11.44 0 c0.94666 0 1.7567 0.33666 2.43 1.01 s1.01 1.4833 1.01 2.43 s-0.33666 1.7567 -1.01 2.43 s-1.4833 1.01 -2.43 1.01 z M92.66000000000001 6.119999999999999 l0 12 c0 0.36 0.18 0.54 0.54 0.54 c0.37334 0 0.56 -0.18 0.56 -0.54 l0 0 l0 -12 c0 -0.37334 -0.18666 -0.56 -0.56 -0.56 c-0.36 0 -0.54 0.18666 -0.54 0.56 z M120.61000000000001 17.54 l-4.48 -2.98 l0.16 0 c1.2667 0 2.3434 -0.44666 3.23 -1.34 s1.33 -1.9667 1.33 -3.22 c0 -1.2667 -0.44334 -2.3434 -1.33 -3.23 s-1.9633 -1.33 -3.23 -1.33 l-12.56 0 l0 12.56 c0 0.37334 0.18666 0.56 0.56 0.56 s0.56 -0.18666 0.56 -0.56 l0 -3.44 l9.28 0 l5.86 3.9 c0.09334 0.06666 0.19334 0.1 0.3 0.1 c0.2 0 0.35334 -0.08666 0.46 -0.26 c0.06666 -0.09334 0.1 -0.19334 0.1 -0.3 c0 -0.2 -0.08 -0.35334 -0.24 -0.46 z M104.85000000000001 6.5600000000000005 l11.44 0 c0.94666 0 1.7567 0.33666 2.43 1.01 s1.01 1.4833 1.01 2.43 s-0.33666 1.7567 -1.01 2.43 s-1.4833 1.01 -2.43 1.01 l-11.44 0 l0 -6.88 z M151.82 17.64 l-10.76 -12.5 l-10.42 12.5 c-0.08 0.09334 -0.12 0.20668 -0.12 0.34002 c0 0.38666 0.19334 0.58 0.58 0.58 c0.16 0 0.29334 -0.06666 0.4 -0.2 l0 0 l3.16 -3.8 l13.04 0 l3.28 3.8 c0.12 0.13334 0.26666 0.2 0.44 0.2 c0.36 0 0.54 -0.18 0.54 -0.54 c0 -0.14666 -0.04666 -0.27332 -0.14 -0.37998 z M135.6 13.440000000000001 l5.48 -6.58 l5.68 6.58 l-11.16 0 z"/></g><g id="SvgjsG1173" featureKey="kZnDdN-1" transform="matrix(1.4727108131406643,0,0,1.4727108131406643,117.96910446730693,54.636445934296674)" fill="#fff"><path d="M16.96 8.14 c-0.81334 -0.94666 -1.8733 -1.6867 -3.18 -2.22 s-2.7 -0.8 -4.18 -0.8 c-2.44 0 -4.52 0.65334 -6.24 1.96 c-1.7733 1.3467 -2.66 2.9866 -2.66 4.92 s0.88666 3.5734 2.66 4.92 c1.72 1.3067 3.8 1.96 6.24 1.96 c1.48 0 2.8734 -0.26666 4.18 -0.8 s2.3666 -1.2733 3.18 -2.22 l0 0 c0.24 -0.29334 0.22666 -0.55334 -0.04 -0.78 c-0.10666 -0.09334 -0.23332 -0.14 -0.37998 -0.14 c-0.16 0 -0.29334 0.06 -0.4 0.18 l0 0 c-0.73334 0.82666 -1.6767 1.4767 -2.83 1.95 s-2.39 0.71 -3.71 0.71 c-2.1466 0 -3.98 -0.56666 -5.5 -1.7 s-2.28 -2.4934 -2.28 -4.08 s0.76 -2.9466 2.28 -4.08 s3.3534 -1.7 5.5 -1.7 c1.32 0 2.5566 0.23666 3.71 0.71 s2.0966 1.1233 2.83 1.95 l0 0 c0.10666 0.12 0.24 0.18 0.4 0.18 c0.14666 0 0.27332 -0.04666 0.37998 -0.14 c0.26666 -0.22666 0.28 -0.48666 0.04 -0.78 z M35.730000000000004 5.220000000000001 c-2.4266 0 -4.5066 0.66 -6.24 1.98 c-1.7733 1.3467 -2.66 2.9866 -2.66 4.92 s0.88666 3.5734 2.66 4.92 c1.72 1.3067 3.8 1.96 6.24 1.96 s4.5134 -0.65334 6.22 -1.96 c1.7733 -1.36 2.66 -3 2.66 -4.92 s-0.88666 -3.56 -2.66 -4.92 c-1.7333 -1.32 -3.8066 -1.98 -6.22 -1.98 z M43.510000000000005 12.120000000000001 c0 1.5867 -0.76 2.9434 -2.28 4.07 s-3.3534 1.69 -5.5 1.69 s-3.98 -0.56334 -5.5 -1.69 s-2.28 -2.4834 -2.28 -4.07 c0 -1.6 0.76 -2.9634 2.28 -4.09 s3.3534 -1.69 5.5 -1.69 s3.98 0.56334 5.5 1.69 s2.28 2.49 2.28 4.09 z M70.42 5.5600000000000005 c-0.37334 0 -0.56 0.18666 -0.56 0.56 l0 10.88 l-16 -12 l0 13.12 c0 0.36 0.18666 0.54 0.56 0.54 s0.56 -0.18 0.56 -0.54 l0 -10.9 l16 12 l0 -13.1 c0 -0.37334 -0.18666 -0.56 -0.56 -0.56 z M96.85000000000001 5.4399999999999995 l-16 0 c-0.37334 0 -0.56 0.18666 -0.56 0.56 s0.18666 0.56 0.56 0.56 l7.44 0 l0 11.44 c0 0.37334 0.18666 0.56 0.56 0.56 s0.56 -0.18666 0.56 -0.56 l0 -11.44 l7.44 0 c0.37334 0 0.56 -0.18666 0.56 -0.56 s-0.18666 -0.56 -0.56 -0.56 z M123.26 12.559999999999999 c0.37334 0 0.56 -0.18666 0.56 -0.56 s-0.18666 -0.56 -0.56 -0.56 l-15.44 0 l0 -4.88 l15.44 0 c0.37334 0 0.56 -0.18666 0.56 -0.56 s-0.18666 -0.56 -0.56 -0.56 l-16.56 0 l0 13.12 l16.56 0 c0.37334 0 0.56 -0.18666 0.56 -0.56 s-0.18666 -0.56 -0.56 -0.56 l-15.44 0 l0 -4.88 l15.44 0 z M149.95000000000002 5.5600000000000005 c-0.37334 0 -0.56 0.18666 -0.56 0.56 l0 10.88 l-16 -12 l0 13.12 c0 0.36 0.18666 0.54 0.56 0.54 s0.56 -0.18 0.56 -0.54 l0 -10.9 l16 12 l0 -13.1 c0 -0.37334 -0.18666 -0.56 -0.56 -0.56 z M176.38 5.4399999999999995 l-16 0 c-0.37334 0 -0.56 0.18666 -0.56 0.56 s0.18666 0.56 0.56 0.56 l7.44 0 l0 11.44 c0 0.37334 0.18666 0.56 0.56 0.56 s0.56 -0.18666 0.56 -0.56 l0 -11.44 l7.44 0 c0.37334 0 0.56 -0.18666 0.56 -0.56 s-0.18666 -0.56 -0.56 -0.56 z"/></g>
			</g>
		</svg>
	