<?xml version="1.0" encoding="UTF-8" standalone="no"?>
<svg
   version="1.1"
   width="800"
   height="800"
   viewBox="0 0 799.99999 800"
   id="svg1016"
   xmlns="http://www.w3.org/2000/svg"
   xmlns:svg="http://www.w3.org/2000/svg">
  <defs
     id="defs1020" />
  <g
     transform="matrix(7.7220077,0,0,7.7220077,77.220077,77.220077)"
     id="g1014">
    <defs
       id="SvgjsDefs1169">
      <linearGradient
         id="SvgjsLinearGradient1178">
        <stop
           id="SvgjsStop1179"
           stop-color="#8f5e25"
           offset="0" />
        <stop
           id="SvgjsStop1180"
           stop-color="#fbf4a1"
           offset="0.5" />
        <stop
           id="SvgjsStop1181"
           stop-color="#8f5e25"
           offset="1" />
      </linearGradient>
      <linearGradient
         id="SvgjsLinearGradient1182">
        <stop
           id="SvgjsStop1183"
           stop-color="#8f5e25"
           offset="0" />
        <stop
           id="SvgjsStop1184"
           stop-color="#fbf4a1"
           offset="0.5" />
        <stop
           id="SvgjsStop1185"
           stop-color="#8f5e25"
           offset="1" />
      </linearGradient>
      <linearGradient
         id="SvgjsLinearGradient1186">
        <stop
           id="SvgjsStop1187"
           stop-color="#8f5e25"
           offset="0" />
        <stop
           id="SvgjsStop1188"
           stop-color="#fbf4a1"
           offset="0.5" />
        <stop
           id="SvgjsStop1189"
           stop-color="#8f5e25"
           offset="1" />
      </linearGradient>
      <linearGradient
         id="SvgjsLinearGradient1190">
        <stop
           id="SvgjsStop1191"
           stop-color="#8f5e25"
           offset="0" />
        <stop
           id="SvgjsStop1192"
           stop-color="#fbf4a1"
           offset="0.5" />
        <stop
           id="SvgjsStop1193"
           stop-color="#8f5e25"
           offset="1" />
      </linearGradient>
    </defs>
    <g
       id="SvgjsG1170"
       featureKey="rootContainer"
       transform="scale(1.05)"
       fill="#000000">
      <rect
         y="0"
         height="1"
         width="1"
         opacity="0"
         id="rect986"
         x="0" />
    </g>
    <g
       id="SvgjsG1171"
       featureKey="2ou6gm-0"
       transform="matrix(1.0144396,0,0,1.0144396,-217.52272,-218.60512)"
       fill="#000000"
       style="fill:#fdd835;fill-opacity:1">
      <g
         id="g1005"
         style="fill:#fdd835;fill-opacity:1">
        <path
           d="m 260.167,261.185 c 0.15,0.149 0.346,0.225 0.541,0.225 0.196,0 0.392,-0.075 0.54,-0.225 l 7.425,-7.423 c 0.298,-0.299 0.298,-0.782 0,-1.081 -0.299,-0.298 -0.783,-0.298 -1.08,0 l -7.426,7.424 c -0.297,0.299 -0.297,0.783 0,1.08 z"
           id="path991"
           style="fill:#fdd835;fill-opacity:1" />
        <path
           d="m 259.896,255.76 c 0.149,0.149 0.345,0.224 0.541,0.224 0.194,0 0.39,-0.074 0.538,-0.224 l 4.849,-4.848 c 0.299,-0.299 0.299,-0.782 0,-1.081 -0.297,-0.298 -0.781,-0.298 -1.079,0 l -4.849,4.849 c -0.298,0.299 -0.298,0.782 0,1.08 z"
           id="path993"
           style="fill:#fdd835;fill-opacity:1" />
        <path
           d="m 259.734,250.989 c 0.195,0 0.391,-0.074 0.54,-0.224 l 2.701,-2.701 c 0.299,-0.298 0.299,-0.782 0,-1.08 -0.299,-0.298 -0.781,-0.298 -1.08,0 l -2.701,2.702 c -0.299,0.298 -0.299,0.782 0,1.08 0.148,0.149 0.343,0.223 0.54,0.223 z"
           id="path995"
           style="fill:#fdd835;fill-opacity:1" />
        <path
           d="m 270.589,262.16 c 0.148,0.15 0.344,0.225 0.538,0.225 0.196,0 0.392,-0.074 0.541,-0.225 l 2.702,-2.701 c 0.299,-0.299 0.299,-0.781 0,-1.08 -0.299,-0.298 -0.783,-0.298 -1.081,0 l -2.7,2.702 c -0.299,0.297 -0.299,0.781 0,1.079 z"
           id="path997"
           style="fill:#fdd835;fill-opacity:1" />
        <path
           d="m 265.593,261.459 c 0.148,0.148 0.345,0.224 0.54,0.224 0.195,0 0.392,-0.075 0.54,-0.224 l 4.849,-4.849 c 0.299,-0.298 0.299,-0.781 0,-1.08 -0.299,-0.298 -0.783,-0.298 -1.08,0 l -4.849,4.849 c -0.298,0.297 -0.298,0.781 0,1.08 z"
           id="path999"
           style="fill:#fdd835;fill-opacity:1" />
        <path
           d="m 299.645,238.486 c 1.244,-1.245 1.244,-3.27 0,-4.516 l -12.262,-12.261 c -0.603,-0.603 -1.405,-0.935 -2.258,-0.935 -0.055,0 -0.109,0.005 -0.164,0.008 -0.025,0 -0.052,10e-4 -0.076,0.003 -0.763,0.057 -1.472,0.378 -2.018,0.923 l -14.126,14.126 H 247.022 V 231.2 c 0,-2.074 -1.688,-3.761 -3.761,-3.761 h -28.084 c -0.919,0 -1.806,0.338 -2.498,0.953 -0.802,0.716 -1.263,1.74 -1.263,2.808 v 15.2 c 0,2.073 1.687,3.76 3.76,3.76 h 2.538 v 33.49 h -1.618 c -1.632,0 -2.96,1.328 -2.96,2.961 v 1.655 c 0,1.633 1.328,2.961 2.96,2.961 h 72.035 c 1.633,0 2.961,-1.328 2.961,-2.961 v -1.655 c 0,-1.633 -1.328,-2.961 -2.961,-2.961 h -1.617 V 251.614 Z M 283.948,222.79 c 0.011,-0.011 0.022,-0.021 0.035,-0.032 l -2.633,15.918 -15.917,2.633 c 0.009,-0.012 0.019,-0.023 0.029,-0.034 z m -36.925,14.573 h 20.191 l -2.831,2.831 c -0.188,0.189 -0.347,0.398 -0.48,0.622 h -16.88 z m 0,9.037 v -4.057 h 16.432 c -0.002,0.036 -0.006,0.072 -0.006,0.108 0,0.853 0.333,1.655 0.935,2.258 l 12.261,12.261 c 0.604,0.603 1.405,0.935 2.258,0.935 0.326,0 0.646,-0.05 0.948,-0.144 v 20.915 H 224.38 V 250.16 h 6.085 l 7.36,6.766 c 0.014,0.012 0.029,0.021 0.044,0.034 0.019,0.015 0.038,0.031 0.059,0.045 0.022,0.014 0.046,0.025 0.069,0.037 0.02,0.011 0.038,0.021 0.059,0.029 0.028,0.012 0.057,0.019 0.085,0.026 0.019,0.006 0.036,0.011 0.053,0.015 0.047,0.01 0.095,0.014 0.143,0.016 0.001,0 0.002,0 0.003,0 0,0 0,0 0,0 0.106,0 0.208,-0.022 0.299,-0.062 0.013,-0.006 0.025,-0.014 0.038,-0.021 0.034,-0.017 0.066,-0.033 0.096,-0.054 0.015,-0.011 0.027,-0.022 0.042,-0.035 0.027,-0.021 0.053,-0.042 0.077,-0.066 0.003,-0.005 0.007,-0.006 0.012,-0.01 0.011,-0.014 0.02,-0.029 0.03,-0.041 0.017,-0.021 0.035,-0.044 0.05,-0.067 0.013,-0.021 0.024,-0.042 0.035,-0.063 0.011,-0.022 0.023,-0.045 0.032,-0.068 0.01,-0.023 0.017,-0.049 0.023,-0.073 0.006,-0.023 0.013,-0.046 0.017,-0.069 0.005,-0.028 0.007,-0.055 0.009,-0.084 0,-0.016 0.005,-0.033 0.005,-0.05 l 0.005,-6.205 h 4.152 c 2.073,-0.001 3.761,-1.688 3.761,-3.76 z m -23.408,33.804 h 56.999 c 0.422,0 0.765,-0.343 0.765,-0.764 v -22.689 l 3.608,-3.608 v 30.508 h -23.415 c -0.052,0 -0.103,0.005 -0.151,0.015 -0.021,0.004 -0.041,0.012 -0.061,0.018 -0.027,0.008 -0.056,0.015 -0.083,0.026 -0.024,0.011 -0.048,0.024 -0.07,0.036 -0.021,0.013 -0.041,0.021 -0.061,0.033 -0.001,10e-4 -0.003,0.003 -0.004,0.003 -0.042,0.028 -0.081,0.06 -0.114,0.095 l -2.799,2.798 h -12.23 l -2.8,-2.8 c -0.03,-0.03 -0.063,-0.055 -0.095,-0.078 -0.007,-0.004 -0.012,-0.011 -0.019,-0.015 -0.03,-0.021 -0.063,-0.037 -0.095,-0.052 -0.013,-0.007 -0.024,-0.016 -0.037,-0.021 -0.035,-0.014 -0.07,-0.023 -0.105,-0.033 -0.013,-0.003 -0.025,-0.008 -0.038,-0.011 -0.05,-0.01 -0.101,-0.015 -0.152,-0.015 h -23.416 v -33.49 h 3.609 v 29.28 c 0,0.421 0.341,0.764 0.764,0.764 z m -8.438,-31.571 c -1.231,0 -2.232,-1.002 -2.232,-2.233 v -15.2 c 0,-0.633 0.274,-1.241 0.751,-1.667 0.411,-0.366 0.937,-0.566 1.481,-0.566 h 28.084 c 1.232,0 2.233,1.001 2.233,2.232 v 15.2 c 0,1.23 -1.001,2.232 -2.233,2.232 h -4.915 c -0.422,0 -0.763,0.341 -0.764,0.763 l -0.004,5.229 -6.3,-5.792 c -0.017,-0.016 -0.037,-0.027 -0.055,-0.041 -0.016,-0.012 -0.032,-0.025 -0.048,-0.036 -0.027,-0.017 -0.054,-0.031 -0.082,-0.044 -0.017,-0.008 -0.033,-0.017 -0.05,-0.024 -0.031,-0.011 -0.061,-0.021 -0.093,-0.028 -0.017,-0.004 -0.033,-0.01 -0.05,-0.013 -0.035,-0.007 -0.07,-0.009 -0.105,-0.01 -0.012,0 -0.023,-0.004 -0.035,-0.004 h -0.031 -0.001 -15.551 z m 72.954,36.544 c 0.789,0 1.434,0.644 1.434,1.434 v 1.655 c 0,0.791 -0.645,1.434 -1.434,1.434 h -72.035 c -0.79,0 -1.432,-0.643 -1.432,-1.434 v -1.655 c 0,-0.79 0.643,-1.434 1.432,-1.434 h 2.375 c 0.002,0 0.005,0 0.007,0 h 23.865 l 2.799,2.801 c 0.035,0.035 0.074,0.066 0.116,0.096 0.02,0.012 0.041,0.021 0.06,0.031 0.024,0.014 0.046,0.027 0.072,0.038 0.025,0.011 0.052,0.017 0.078,0.024 0.022,0.007 0.042,0.016 0.064,0.02 0.05,0.009 0.1,0.015 0.15,0.015 h 12.863 c 0.05,0 0.099,-0.006 0.149,-0.015 0.022,-0.004 0.043,-0.013 0.064,-0.02 0.025,-0.008 0.053,-0.014 0.077,-0.024 0.025,-0.011 0.048,-0.024 0.071,-0.037 0.021,-0.011 0.041,-0.021 0.062,-0.032 0.038,-0.027 0.075,-0.057 0.107,-0.089 0.003,-0.003 0.006,-0.004 0.009,-0.007 l 2.799,-2.801 h 23.865 c 0.003,0 0.004,0 0.007,0 z m -2.921,-34.419 c 0,10e-4 0,10e-4 0,0 l -5.131,5.13 c -0.313,0.315 -0.732,0.488 -1.178,0.488 -0.444,0 -0.862,-0.172 -1.177,-0.488 l -12.262,-12.261 c -0.2,-0.2 -0.342,-0.442 -0.42,-0.707 l 17.096,-2.828 c 0.002,0 0.003,-0.001 0.004,-0.001 0.048,-0.008 0.096,-0.021 0.141,-0.038 0.013,-0.005 0.023,-0.012 0.036,-0.016 0.031,-0.014 0.062,-0.028 0.09,-0.046 0.017,-0.01 0.031,-0.022 0.048,-0.033 0.021,-0.017 0.045,-0.033 0.065,-0.052 0.015,-0.013 0.027,-0.027 0.041,-0.041 0.019,-0.021 0.038,-0.041 0.055,-0.063 0.012,-0.015 0.022,-0.03 0.032,-0.046 0.015,-0.023 0.03,-0.047 0.042,-0.072 0.01,-0.018 0.019,-0.035 0.026,-0.054 0.01,-0.024 0.018,-0.049 0.025,-0.075 0.006,-0.021 0.013,-0.043 0.017,-0.064 0.002,-0.009 0.006,-0.017 0.007,-0.027 l 2.828,-17.095 c 0.265,0.077 0.506,0.22 0.707,0.42 l 12.261,12.261 c 0.649,0.649 0.649,1.705 0,2.354 z"
           id="path1001"
           style="fill:#fdd835;fill-opacity:1" />
        <path
           d="m 239.646,262.51 c -1.935,0 -3.51,1.574 -3.51,3.509 0,1.936 1.575,3.511 3.51,3.511 1.039,0 1.971,-0.457 2.614,-1.176 l 5.015,2.798 c -0.095,0.318 -0.147,0.654 -0.147,1.002 0,1.936 1.574,3.51 3.509,3.51 1.936,0 3.51,-1.574 3.51,-3.51 0,-1.936 -1.574,-3.511 -3.51,-3.511 -1.039,0 -1.971,0.457 -2.614,1.177 l -5.014,-2.799 c 0.095,-0.317 0.148,-0.653 0.148,-1.002 0,-0.347 -0.052,-0.683 -0.147,-1 l 5.015,-2.8 c 0.643,0.721 1.574,1.177 2.613,1.177 1.935,0 3.51,-1.575 3.51,-3.509 0,-1.937 -1.575,-3.51 -3.51,-3.51 -1.935,0 -3.509,1.574 -3.509,3.51 0,0.348 0.053,0.683 0.147,1.001 l -5.014,2.798 c -0.645,-0.72 -1.577,-1.176 -2.616,-1.176 z m 0,5.493 c -1.093,0 -1.982,-0.89 -1.982,-1.983 0,-1.093 0.889,-1.982 1.982,-1.982 1.093,0 1.982,0.89 1.982,1.982 0,1.093 -0.889,1.983 -1.982,1.983 z m 9.255,3.194 c 0.002,-0.002 0.004,-0.005 0.006,-0.008 10e-4,-0.001 10e-4,-0.001 10e-4,-0.003 0.339,-0.604 0.987,-1.015 1.728,-1.015 1.094,0 1.982,0.89 1.982,1.982 0,1.092 -0.889,1.981 -1.982,1.981 -1.093,0 -1.981,-0.889 -1.981,-1.981 0,-0.346 0.089,-0.672 0.246,-0.956 z m 1.735,-13.292 c 1.093,0 1.982,0.888 1.982,1.982 0,1.093 -0.89,1.98 -1.982,1.98 -1.092,0 -1.981,-0.888 -1.981,-1.98 0,-1.094 0.888,-1.982 1.981,-1.982 z"
           id="path1003"
           style="fill:#fdd835;fill-opacity:1" />
      </g>
    </g>
    <g
       id="SvgjsG1172"
       featureKey="kZnDdN-0"
       transform="matrix(1.7184226,0,0,1.7184226,117.41905,19.407887)"
       fill="#000000" />
    <g
       id="SvgjsG1173"
       featureKey="kZnDdN-1"
       transform="matrix(1.4727108,0,0,1.4727108,117.9691,54.636446)"
       fill="#000000" />
  </g>
</svg>
