<svg xmlns="http://www.w3.org/2000/svg" viewBox="0 0 24 24"><g fill='#FDD835'><circle cx="3" cy="9" r="1"></circle><circle cx="3" cy="6" r="1"></circle><circle cx="6" cy="6" r="1"></circle><circle cx="9" cy="6" r="1"></circle><circle cx="3" cy="12" r="1"></circle><circle cx="3" cy="15" r="1"></circle><circle cx="3" cy="18" r="1"></circle><circle cx="6" cy="18" r="1"></circle><circle cx="9" cy="18" r="1"></circle><path d="M21 10h-9c-.6 0-1-.4-1-1V3c0-.6.4-1 1-1h9c.6 0 1 .4 1 1v6c0 .6-.4 1-1 1zM21 22h-9c-.6 0-1-.4-1-1v-6c0-.6.4-1 1-1h9c.6 0 1 .4 1 1v6c0 .6-.4 1-1 1z"></path></g></svg>