<svg xmlns="http://www.w3.org/2000/svg" viewBox="0 0 24 24"><g fill='#FDD835'><path d="M8 18c-.9 0-2-.1-2-1.6C6 15 7 15 7 13.5S6.1 12 5.5 12c.6 0 1.5 0 1.5-1.5S6 9.1 6 7.6 7.1 6 8 6c.6 0 1-.4 1-1s-.4-1-1-1c-1 0-1.4.1-1.8.3C4.5 5 3.8 7 4.4 8.7l.6 1.8c0 .4-.3.7-.7.6-.7-.3-1.3.2-1.3.9s.6 1.2 1.3 1c.4-.2.7.1.7.5l-.6 1.8c-.6 1.7.1 3.7 1.8 4.4.4.2.8.3 1.8.3.6 0 1-.4 1-1s-.4-1-1-1zM19.7 11c-.3.1-.7-.2-.7-.6l.6-1.8c.6-1.6-.1-3.6-1.8-4.3-.4-.2-.8-.3-1.8-.3-.6 0-1 .4-1 1s.4 1 1 1c.9 0 2 .1 2 1.6s-1 1.4-1 2.9.9 1.5 1.5 1.5c-.6 0-1.5 0-1.5 1.5s1 1.4 1 2.9c0 1.6-1.1 1.6-2 1.6-.6 0-1 .4-1 1s.4 1 1 1c1 0 1.4-.1 1.8-.3 1.7-.7 2.4-2.7 1.8-4.4l-.6-1.8c0-.4.3-.7.7-.6.7.2 1.3-.3 1.3-1 0-.6-.6-1.1-1.3-.9z"></path></g></svg>