<svg xmlns="http://www.w3.org/2000/svg" viewBox="0 0 24 24"><g fill='#FDD835'><path d="M8 18h-.4c-.9 0-1.6-.7-1.6-1.6v-2.9C6 12 5.1 12 4.5 12c.6 0 1.5 0 1.5-1.5V7.6C6 6.7 6.7 6 7.6 6H8c.6 0 1-.4 1-1s-.4-1-1-1h-.4C5.6 4 4 5.6 4 7.6v2.9c0 .4-.3.7-.7.6-.7-.3-1.3.2-1.3.9s.6 1.2 1.3 1c.4-.2.7.1.7.5v2.9c0 2 1.6 3.6 3.6 3.6H8c.6 0 1-.4 1-1s-.4-1-1-1zM16 6h.4c.9 0 1.6.7 1.6 1.6v2.9c0 1.5.9 1.5 1.5 1.5-.6 0-1.5 0-1.5 1.5v2.9c0 .9-.7 1.6-1.6 1.6H16c-.6 0-1 .4-1 1s.4 1 1 1h.4c2 0 3.6-1.6 3.6-3.6v-2.9c0-.4.3-.7.7-.6.7.2 1.3-.3 1.3-1s-.6-1.2-1.3-1c-.3.1-.7-.2-.7-.6V7.4c0-2-1.6-3.6-3.6-3.6H16c-.6 0-1 .4-1 1 0 .8.4 1.2 1 1.2z"></path></g></svg>