<svg xmlns="http://www.w3.org/2000/svg" viewBox="0 0 24 24"><g fill='#916127'><path d="M21 16.2V13c0-1.1-.9-2-2-2h-6V7.8c1.3-.5 2.2-1.9 1.9-3.4-.2-1.2-1.2-2.1-2.4-2.3C10.7 1.7 9 3.2 9 5c0 1.3.8 2.4 2 2.8V11H5c-1.1 0-2 .9-2 2v3.2c-1.3.5-2.2 1.9-1.9 3.4.2 1.2 1.2 2.1 2.4 2.3C5.3 22.3 7 20.8 7 19c0-1.3-.8-2.4-2-2.8V13h6v3.2c-1.3.5-2.2 1.9-1.9 3.4.2 1.2 1.2 2.1 2.4 2.3 1.9.3 3.6-1.1 3.6-2.9 0-1.3-.8-2.4-2-2.8V13h6v3.2c-1.3.5-2.2 1.9-1.9 3.4.2 1.2 1.2 2.1 2.4 2.3 1.9.3 3.6-1.1 3.6-2.9-.2-1.3-1-2.4-2.2-2.8z"></path></g></svg>